<svg width="45" height="32" viewBox="0 0 45 32" fill="none" xmlns="http://www.w3.org/2000/svg">
<rect x="0.5" y="0.5" width="44" height="30.7647" rx="4.79412" fill="#1A1A1A" stroke="#333333"/>
<path fill-rule="evenodd" clip-rule="evenodd" d="M12.5059 11.0424C12.1282 11.5081 11.5238 11.8755 10.9195 11.823C10.8439 11.1932 11.1398 10.5241 11.486 10.1109C11.8638 9.632 12.5248 9.29089 13.0598 9.26465C13.1228 9.92063 12.8773 10.5635 12.5059 11.0424ZM13.0535 11.9476C12.5211 11.9157 12.0353 12.1144 11.6429 12.275C11.3904 12.3783 11.1765 12.4658 11.0138 12.4658C10.8313 12.4658 10.6086 12.3736 10.3586 12.2702C10.031 12.1345 9.65651 11.9795 9.26377 11.9869C8.36356 12.0001 7.5263 12.5314 7.06675 13.3776C6.12247 15.0701 6.82124 17.5759 7.73404 18.9535C8.181 19.6357 8.71609 20.3835 9.42115 20.3573C9.73134 20.3451 9.95446 20.2464 10.1854 20.1443C10.4512 20.0268 10.7274 19.9046 11.1586 19.9046C11.5749 19.9046 11.839 20.0236 12.0925 20.1377C12.3336 20.2463 12.565 20.3505 12.9087 20.3441C13.6389 20.331 14.0985 19.6619 14.5454 18.9797C15.0278 18.2475 15.2397 17.5329 15.2719 17.4245L15.2757 17.4119C15.2749 17.4111 15.2689 17.4083 15.2584 17.4032C15.0972 17.3263 13.8648 16.7384 13.853 15.1619C13.8411 13.8386 14.8305 13.1682 14.9862 13.0627C14.9957 13.0562 15.0021 13.0519 15.005 13.0496C14.3755 12.0788 13.3934 11.9738 13.0535 11.9476ZM18.1086 20.272V10.0452H21.7913C23.6924 10.0452 25.0207 11.4097 25.0207 13.4039C25.0207 15.398 23.6672 16.7756 21.7409 16.7756H19.632V20.272H18.1086ZM19.6319 11.3835H21.3882C22.7102 11.3835 23.4656 12.1182 23.4656 13.4105C23.4656 14.7027 22.7102 15.444 21.3819 15.444H19.6319V11.3835ZM30.0506 19.0454C29.6477 19.8457 28.7601 20.3508 27.8032 20.3508C26.3868 20.3508 25.3985 19.4717 25.3985 18.1467C25.3985 16.8347 26.3553 16.0803 28.1243 15.9688L30.0254 15.8507V15.2866C30.0254 14.4535 29.5029 14.0009 28.5713 14.0009C27.8032 14.0009 27.243 14.4141 27.1297 15.0439H25.7573C25.8014 13.7188 26.9975 12.7545 28.6153 12.7545C30.3591 12.7545 31.4922 13.7057 31.4922 15.1816V20.272H30.0821V19.0454H30.0506ZM28.2123 19.1372C27.4003 19.1372 26.8841 18.7304 26.8841 18.1073C26.8841 17.4644 27.3814 17.0905 28.3319 17.0315L30.0254 16.9199V17.4972C30.0254 18.4549 29.2448 19.1372 28.2123 19.1372ZM36.1695 20.6722C35.5588 22.463 34.8601 23.0534 33.3744 23.0534C33.2611 23.0534 32.8834 23.0403 32.7953 23.014V21.7874C32.8897 21.8005 33.1226 21.8136 33.2422 21.8136C33.9158 21.8136 34.2935 21.5184 34.5264 20.7509L34.6649 20.2983L32.0839 12.8529H33.6766L35.4707 18.8945H35.5022L37.2963 12.8529H38.8449L36.1695 20.6722Z" fill="white"/>
</svg>
