<svg width="45" height="32" viewBox="0 0 45 32" fill="none" xmlns="http://www.w3.org/2000/svg">
<rect x="0.5" y="0.5" width="44" height="30.7647" rx="4.79412" fill="#1A1A1A" stroke="#333333"/>
<path fill-rule="evenodd" clip-rule="evenodd" d="M14.2279 20.9888H11.5017L9.45748 12.9604C9.36045 12.5911 9.15443 12.2647 8.85138 12.1108C8.09508 11.7241 7.26169 11.4163 6.35254 11.2611V10.952H10.7441C11.3502 10.952 11.8048 11.4163 11.8806 11.9556L12.9412 17.7467L15.666 10.952H18.3164L14.2279 20.9888ZM19.8316 20.9888H17.257L19.3771 10.952H21.9517L19.8316 20.9888ZM25.2826 13.7326C25.3583 13.192 25.8129 12.8829 26.3433 12.8829C27.1767 12.8053 28.0845 12.9605 28.8421 13.3459L29.2967 11.1849C28.5391 10.8758 27.7057 10.7206 26.9494 10.7206C24.4505 10.7206 22.6322 12.1108 22.6322 14.0403C22.6322 15.5082 23.9202 16.2789 24.8293 16.7432C25.8129 17.2062 26.1917 17.5153 26.116 17.9782C26.116 18.6727 25.3583 18.9818 24.6021 18.9818C23.6929 18.9818 22.7837 18.7503 21.9517 18.3636L21.4971 20.5259C22.4063 20.9112 23.3898 21.0665 24.299 21.0665C27.1009 21.1427 28.8421 19.7538 28.8421 17.6691C28.8421 15.0439 25.2826 14.89 25.2826 13.7326V13.7326ZM37.8526 20.9888L35.8083 10.952H33.6125C33.1579 10.952 32.7033 11.2611 32.5518 11.7241L28.7663 20.9888H31.4167L31.9457 19.5223H35.2022L35.5052 20.9888H37.8526ZM33.9913 13.655L34.7476 17.4377H32.6276L33.9913 13.655Z" fill="white"/>
</svg>
